<svg
   width="24"
   height="24"
   viewBox="-4 -4 32 32"
   fill="none"
   xmlns="http://www.w3.org/2000/svg"
>
   <rect
      x="-4"
      y="-4"
      width="32"
      height="32"
      fill="#1d1e25"
   />
   <circle
      cx="12"
      cy="6.5"
      r="2.3"
      fill="#a6d7e7"
   />
   <path
      fill-rule="evenodd"
      clip-rule="evenodd"
      d="M7 6.5C7 3.73858 9.27293 1.5 12 1.5C14.7958 1.5 17 3.73858 17 6.5V10.5C17 13.2614 14.7958 15.5 12 15.5C9.27293 15.5 7 13.2614 7 10.5V6.5ZM15 6.5V10.5C15 12.1569 13.6912 13.5 12 13.5C10.3775 13.5 9 12.1569 9 10.5V6.5C9 4.84315 10.3775 3.5 12 3.5C13.6912 3.5 15 4.84315 15 6.5Z"
      fill="#a6d7e7"
   />
   <path
      d="M12 16.5 C11.4821 16.5 11 16.9477 11 17.5V21.5C11 22 11.4821 22.5 12 22.5C12.5866 22.5 13 22 13 21.5V17.5C13 16.9477 12.5866 16.5 12 16.5Z"
      fill="#a6d7e7"
   />
   <path
      d="M7.74433 16.4397C7.93323 15.9207 8.50707 15.6531 9.02605 15.842C9.54502 16.0309 9.81261 16.6048 9.62372 17.1237L8.25564 20.8825C8.06675 21.4015 7.4929 21.6691 6.97393 21.4802C6.45495 21.2913 6.18736 20.7174 6.37625 20.1985L7.74433 16.4397Z"
      fill="#a6d7e7"
   />
   <path
      d="M14.974 15.8421C14.4551 16.031 14.1875 16.6048 14.3764 17.1238L15.7445 20.8825C15.9333 21.4015 16.5072 21.6691 17.0262 21.4802C17.5451 21.2913 17.8127 20.7175 17.6238 20.1985L16.2558 16.4397C16.0669 15.9208 15.493 15.6532 14.974 15.8421Z"
      fill="#a6d7e7"
   />
</svg>
